<svg width="152" height="152" viewBox="0 0 152 152" fill="none" xmlns="http://www.w3.org/2000/svg">
<circle cx="76.0003" cy="75.9994" r="64.6429" stroke="#1A1B1C"/>
<circle cx="76" cy="76" r="57" fill="#1A1B1C"/>
<path d="M112.51 39.578C103.174 30.2191 90.263 24.4282 75.9992 24.4282C72.6983 24.4282 69.4699 24.7383 66.3415 25.331C71.6778 34.1589 91.176 65.1083 94.9325 70.6132C95.6618 71.6825 96.958 69.5583 104.81 54.4214L112.51 39.578Z" fill="#FCFCFC"/>
<path d="M28.0386 57.0044C34.1782 41.5159 47.6035 29.7087 64.0862 25.811C66.0375 28.7379 69.7647 34.5209 73.8382 40.9608L84.1875 57.3249H54.636C40.3753 57.3249 32.0408 57.2321 28.0386 57.0044Z" fill="#FCFCFC"/>
<path d="M35.6176 108.08C28.6129 99.2745 24.4277 88.1258 24.4277 75.9997C24.4277 70.1892 25.3886 64.6032 27.1602 59.3919H43.7733C63.204 59.3919 63.6464 59.4222 62.9522 60.721C61.576 63.2965 41.155 98.6457 35.6176 108.08Z" fill="#FCFCFC"/>
<path d="M86.0178 126.599C82.7769 127.237 79.4271 127.571 75.9992 127.571C60.5661 127.571 46.7163 120.792 37.2652 110.049C39.3073 105.512 44.6259 96.0414 53.8379 80.4833C54.7041 79.0191 55.582 77.9904 55.7884 78.1972C55.9948 78.4032 63.2618 89.9924 71.9385 103.95L86.0178 126.599Z" fill="#FCFCFC"/>
<path d="M124.649 93.1535C118.885 109.499 105.117 122.069 88.0517 126.155C83.3513 118.906 67.7422 93.8336 67.7422 93.4457C67.7422 93.2852 81.2311 93.1535 97.7176 93.1535H124.649Z" fill="#FCFCFC"/>
<path d="M113.889 41.0138C122.382 50.2068 127.571 62.4973 127.571 75.9997C127.571 81.5021 126.709 86.8032 125.113 91.7755H107.96C96.8142 91.7755 87.6951 91.6074 87.6951 91.4014C87.6951 90.976 110.016 48.0763 113.889 41.0138Z" fill="#FCFCFC"/>
</svg>
